<svg xmlns="http://www.w3.org/2000/svg" width="196" height="35" viewBox="0 0 196 35" fill="none"><path fill="#000" d="M0 34.327V.673h16.224c4.169 0 7.28.817 9.335 2.452 2.055 1.603 3.082 3.718 3.082 6.346 0 1.73-.438 3.253-1.314 4.568-.846 1.281-2.055 2.307-3.626 3.076-1.54.738-3.384 1.106-5.529 1.106l.907-2.307c2.235 0 4.184.368 5.846 1.105 1.662.705 2.945 1.747 3.852 3.125.936 1.346 1.405 2.997 1.405 4.952 0 2.917-1.118 5.192-3.354 6.827-2.205 1.603-5.438 2.404-9.698 2.404H0Zm8.882-6.875h7.523c1.54 0 2.704-.273 3.49-.817.815-.577 1.223-1.443 1.223-2.597 0-1.153-.408-2.003-1.223-2.548-.786-.576-1.95-.865-3.49-.865H8.248v-6.586h6.798c1.51 0 2.643-.273 3.398-.818.756-.545 1.133-1.362 1.133-2.452 0-1.09-.377-1.89-1.133-2.404-.755-.544-1.888-.817-3.398-.817H8.882v19.904ZM34.83 34.327V.673h8.972V26.78h15.136v7.548H34.83ZM78 35c-2.538 0-4.88-.433-7.025-1.298-2.145-.865-4.018-2.083-5.62-3.654a17.392 17.392 0 0 1-3.67-5.577c-.876-2.115-1.314-4.439-1.314-6.971s.438-4.856 1.314-6.971c.876-2.116 2.1-3.958 3.67-5.529a16.67 16.67 0 0 1 5.62-3.702C73.12.433 75.462 0 78 0c2.568 0 4.91.433 7.025 1.298 2.145.865 4.003 2.1 5.574 3.702 1.57 1.57 2.794 3.413 3.67 5.529.907 2.115 1.36 4.439 1.36 6.971s-.453 4.872-1.36 7.02c-.876 2.115-2.1 3.958-3.67 5.528-1.571 1.57-3.43 2.789-5.574 3.654-2.115.865-4.457 1.298-7.025 1.298Zm0-7.885c1.208 0 2.326-.224 3.353-.673a7.66 7.66 0 0 0 2.719-1.923c.785-.865 1.39-1.89 1.813-3.077.453-1.186.68-2.5.68-3.942 0-1.474-.227-2.789-.68-3.942-.423-1.186-1.028-2.196-1.813-3.03a7.402 7.402 0 0 0-2.719-1.97c-1.027-.449-2.145-.673-3.354-.673a8.61 8.61 0 0 0-3.398.673 7.935 7.935 0 0 0-2.72 1.97c-.755.834-1.359 1.844-1.812 3.03-.423 1.153-.635 2.468-.635 3.942 0 1.442.212 2.756.635 3.942.453 1.186 1.057 2.212 1.813 3.077a8.235 8.235 0 0 0 2.719 1.923 8.61 8.61 0 0 0 3.398.673ZM116.189 35c-2.508 0-4.834-.417-6.979-1.25-2.145-.865-4.003-2.083-5.574-3.654-1.541-1.57-2.749-3.413-3.626-5.529-.876-2.147-1.314-4.503-1.314-7.067s.438-4.904 1.314-7.02c.877-2.147 2.1-4.006 3.671-5.576 1.571-1.57 3.429-2.773 5.574-3.606C111.431.433 113.802 0 116.37 0c2.991 0 5.665.529 8.021 1.587 2.357 1.057 4.306 2.58 5.846 4.567l-5.71 5.48c-1.087-1.25-2.265-2.179-3.534-2.788-1.239-.64-2.629-.961-4.17-.961-1.359 0-2.598.224-3.716.673a7.648 7.648 0 0 0-2.855 1.97c-.785.834-1.405 1.844-1.858 3.03-.423 1.153-.634 2.468-.634 3.942 0 1.41.211 2.708.634 3.894.453 1.186 1.073 2.212 1.858 3.077a8.586 8.586 0 0 0 2.81 1.971c1.118.449 2.341.673 3.671.673a11.61 11.61 0 0 0 3.897-.673c1.269-.48 2.553-1.282 3.852-2.404l5.03 6.683c-1.812 1.378-3.912 2.436-6.299 3.173-2.387.737-4.728 1.106-7.024 1.106Zm5.393-5.529V16.78h7.93V30.72l-7.93-1.25ZM135.201 34.327V.673h8.973V26.78h15.136v7.548h-24.109ZM178.371 35c-2.537 0-4.879-.433-7.024-1.298-2.145-.865-4.018-2.083-5.619-3.654a17.391 17.391 0 0 1-3.671-5.577c-.876-2.115-1.314-4.439-1.314-6.971s.438-4.856 1.314-6.971A16.84 16.84 0 0 1 165.728 5a16.668 16.668 0 0 1 5.619-3.702C173.492.433 175.834 0 178.371 0c2.568 0 4.91.433 7.025 1.298 2.145.865 4.003 2.1 5.574 3.702 1.571 1.57 2.794 3.413 3.67 5.529.907 2.115 1.36 4.439 1.36 6.971s-.453 4.872-1.36 7.02c-.876 2.115-2.099 3.958-3.67 5.528-1.571 1.57-3.429 2.789-5.574 3.654-2.115.865-4.457 1.298-7.025 1.298Zm0-7.885c1.209 0 2.327-.224 3.354-.673a7.66 7.66 0 0 0 2.719-1.923c.785-.865 1.39-1.89 1.813-3.077.453-1.186.679-2.5.679-3.942 0-1.474-.226-2.789-.679-3.942-.423-1.186-1.028-2.196-1.813-3.03a7.402 7.402 0 0 0-2.719-1.97c-1.027-.449-2.145-.673-3.354-.673a8.606 8.606 0 0 0-3.398.673 7.935 7.935 0 0 0-2.72 1.97c-.755.834-1.359 1.844-1.812 3.03-.423 1.153-.635 2.468-.635 3.942 0 1.442.212 2.756.635 3.942.453 1.186 1.057 2.212 1.812 3.077a8.235 8.235 0 0 0 2.72 1.923 8.606 8.606 0 0 0 3.398.673Z"/></svg>